<svg id="Layer_3" enable-background="new 0 0 64 64" height="512" viewBox="0 0 64 64" width="512" xmlns="http://www.w3.org/2000/svg" xmlns:xlink="http://www.w3.org/1999/xlink"><linearGradient id="SVGID_1_" gradientUnits="userSpaceOnUse" x1="32" x2="32" y1="63" y2="1"><stop offset="0" stop-color="#9f2fff"/><stop offset="1" stop-color="#0bb1d3"/></linearGradient><path d="m41 10.422c-1.657.475-3.171 1.335-4.399 2.563l-9.615 9.615c-.744.744-1.356 1.597-1.838 2.529-.927.478-1.788 1.097-2.547 1.856l-9.615 9.615c-1.733 1.733-2.757 3.982-2.946 6.399h-9.04v20h22v-9.422c1.657-.475 3.171-1.335 4.399-2.563l9.615-9.615c.744-.744 1.356-1.597 1.838-2.529.927-.478 1.788-1.097 2.547-1.856l9.615-9.615c1.733-1.733 2.757-3.982 2.946-6.399h9.04v-20h-22zm-12.601 13.593 9.615-9.615c.851-.851 1.868-1.495 2.985-1.901v2.181c-.581.296-1.116.679-1.571 1.134l-8.284 8.284c-.438-.059-.883-.098-1.336-.098-.507 0-1.005.049-1.498.121.032-.033.056-.073.089-.106zm10.945 6.571c-1.04-2.757-3.225-4.902-5.934-5.926l7.432-7.432c.047-.047.108-.081.158-.126v3.898h6.919c-.161.81-.559 1.569-1.146 2.157zm-24.945 7.429 9.615-9.615c1.548-1.548 3.605-2.4 5.794-2.4 3.773 0 7.03 2.573 7.938 6.184l-.588.588c-.344.343-.752.609-1.188.814-.306-3.131-2.952-5.586-6.162-5.586-1.629 0-3.225.661-4.379 1.813l-9.616 9.616c-1.152 1.154-1.813 2.749-1.813 4.379 0 1.652.671 3.236 1.83 4.391l-1.088 1.726c-1.733-1.546-2.742-3.765-2.742-6.117 0-2.189.852-4.246 2.399-5.793zm19.579-4.037c-2.138-.11-3.846-1.819-3.957-3.957 2.139.111 3.847 1.819 3.957 3.957zm-9.322-.564c1.04 2.757 3.225 4.902 5.934 5.926l-7.432 7.432c-.048.047-.108.081-.158.126v-3.898h-6.919c.161-.81.559-1.569 1.146-2.157zm-3.656 27.586h-18v-16h7.073c.342 2.902 1.915 5.541 4.36 7.218l.857.588 3.189-5.06-.754-.551c-.749-.547-1.282-1.327-1.542-2.195h4.817zm14.601-21.015-9.615 9.615c-.851.851-1.868 1.495-2.985 1.901v-2.181c.581-.296 1.116-.679 1.571-1.134l8.284-8.284c.438.059.883.098 1.336.098.507 0 1.005-.049 1.498-.121-.032.033-.056.073-.089.106zm14-14-9.615 9.615c-1.548 1.548-3.605 2.4-5.794 2.4-3.773 0-7.03-2.573-7.938-6.184l.588-.588c.344-.343.752-.609 1.188-.814.306 3.131 2.952 5.586 6.162 5.586 1.629 0 3.225-.661 4.379-1.813l9.616-9.616c1.152-1.154 1.813-2.749 1.813-4.379 0-1.576-.586-3.057-1.636-4.192l1.292-1.546c1.5 1.526 2.344 3.569 2.344 5.738 0 2.189-.852 4.246-2.399 5.793zm-6.601-22.985h18v16h-7.071c-.308-2.649-1.635-5.067-3.749-6.763l-.764-.613-3.862 4.619.819.636c.706.548 1.187 1.293 1.433 2.121h-4.806zm14 4h-6v-2h8v6h-2zm-8 0h-2v-2h2zm-42 50h4v2h-6v-8h2zm0-8h-2v-2h2zm39-10v2h-2v-2zm-2 4h2v2h-2zm2 0v-2h2v2zm-2-2v2h-2v-2zm8 7v2h-2v-2zm-2 4h2v2h-2zm2 0v-2h2v2zm-2-2v2h-2v-2zm-20-38h-2v-2h2zm-2 2h2v2h-2zm2 0v-2h2v2zm-2 0h-2v-2h2zm-14 8h-2v-2h2zm-2 2h2v2h-2zm2 0v-2h2v2zm-2 0h-2v-2h2zm6-14h-2v-2h2zm-2 2h2v2h-2zm2 0v-2h2v2zm-2 0h-2v-2h2zm43 17v2h-2v-2zm-2 4h2v2h-2zm2 0v-2h2v2zm-2-2v2h-2v-2zm-21 20v2h-2v-2zm-2 4h2v2h-2zm2 0v-2h2v2zm-2-2v2h-2v-2z" fill="url(#SVGID_1_)"/></svg>