<svg id="Layer_5" enable-background="new 0 0 64 64" height="512" viewBox="0 0 64 64" width="512" xmlns="http://www.w3.org/2000/svg" xmlns:xlink="http://www.w3.org/1999/xlink"><linearGradient id="SVGID_1_" gradientUnits="userSpaceOnUse" x1="32" x2="32" y1="63" y2="1"><stop offset="0" stop-color="#9f2fff"/><stop offset="1" stop-color="#0bb1d3"/></linearGradient><path d="m33 27v-2h-2v2h-3v10h3v2h2v-2c1.654 0 3-1.346 3-3 0-.768-.29-1.469-.766-2 .476-.531.766-1.232.766-2 0-1.654-1.346-3-3-3zm0 8h-3v-2h3c.551 0 1 .448 1 1s-.449 1-1 1zm0-4h-3v-2h3c.551 0 1 .449 1 1s-.449 1-1 1zm16-21h-2.184c-.414-1.161-1.514-2-2.816-2-1.654 0-3 1.346-3 3 0 1.302.839 2.402 2 2.816v4.184h-6v4.22c-1.228-.63-2.578-1.043-4-1.173v-8.047h6v-12h-14v12h6v8.047c-1.422.13-2.772.543-4 1.173v-4.22h-6v-4.184c1.161-.414 2-1.514 2-2.816 0-1.654-1.346-3-3-3-1.302 0-2.402.839-2.816 2h-2.184v-5h-14v12h14v-5h2.184c.302.847.969 1.514 1.816 1.816v6.184h6v3.528c-1.687 1.393-2.96 3.284-3.579 5.472h-2.48c-.5-4.493-4.317-8-8.941-8-4.962 0-9 4.038-9 9v4c0 4.963 4.038 9 9 9 4.624 0 8.442-3.507 8.941-8h2.479c.62 2.189 1.892 4.08 3.579 5.472v3.528h-6v6.184c-.847.302-1.514.969-1.816 1.816h-2.183v-5h-14v12h14v-5h2.184c.414 1.161 1.514 2 2.816 2 1.654 0 3-1.346 3-3 0-1.302-.839-2.402-2-2.816v-4.184h6v-4.22c1.228.63 2.578 1.043 4 1.173v8.047h-6v12h14v-12h-6v-8.047c1.422-.13 2.772-.543 4-1.173v4.22h6v4.184c-1.161.414-2 1.514-2 2.816 0 1.654 1.346 3 3 3 1.302 0 2.402-.839 2.816-2h2.184v5h14v-12h-14v5h-2.184c-.302-.847-.969-1.514-1.816-1.816v-6.184h-6v-3.528c1.687-1.393 2.96-3.284 3.579-5.472h2.479c.5 4.493 4.317 8 8.941 8 4.962 0 9-4.037 9-9v-4c0-4.962-4.038-9-9-9-4.624 0-8.441 3.507-8.941 8h-2.48c-.62-2.189-1.892-4.08-3.579-5.472v-3.528h6v-6.184c.847-.302 1.514-.969 1.816-1.816h2.185v5h14v-12h-14zm-22-7h10v8h-10zm-14 12h-10v-8h10zm7-5c.551 0 1 .449 1 1s-.449 1-1 1-1-.449-1-1 .449-1 1-1zm-7 47h-10v-8h10zm7-3c-.551 0-1-.448-1-1s.449-1 1-1 1 .448 1 1-.449 1-1 1zm17 7h-10v-8h10zm14-12h10v8h-10zm-7 5c-.551 0-1-.448-1-1s.449-1 1-1 1 .448 1 1-.449 1-1 1zm-32-19h.816c-.414 1.161-1.514 2-2.816 2-1.654 0-3-1.346-3-3v-4c0-1.654 1.346-3 3-3 1.302 0 2.402.839 2.816 2h-.816c-1.654 0-3 1.346-3 3s1.346 3 3 3zm0-2c-.551 0-1-.449-1-1s.449-1 1-1h12c.551 0 1 .449 1 1s-.449 1-1 1zm-2 8c-3.86 0-7-3.141-7-7v-4c0-3.86 3.14-7 7-7 3.519 0 6.432 2.613 6.92 6h-2.021c-.465-2.279-2.484-4-4.899-4-2.757 0-5 2.243-5 5v4c0 2.757 2.243 5 5 5 2.414 0 4.434-1.721 4.899-4h2.021c-.488 3.386-3.401 6-6.92 6zm42-12h-.816c.414-1.161 1.514-2 2.816-2 1.654 0 3 1.346 3 3v4c0 1.654-1.346 3-3 3-1.302 0-2.402-.839-2.816-2h.816c1.654 0 3-1.346 3-3s-1.346-3-3-3zm0 2c.551 0 1 .449 1 1s-.449 1-1 1h-12c-.551 0-1-.449-1-1s.449-1 1-1zm2-8c3.86 0 7 3.14 7 7v4c0 3.859-3.14 7-7 7-3.519 0-6.432-2.614-6.92-6h2.021c.465 2.279 2.484 4 4.899 4 2.757 0 5-2.243 5-5v-4c0-2.757-2.243-5-5-5-2.414 0-4.434 1.721-4.899 4h-2.021c.488-3.387 3.401-6 6.92-6zm-13.522 6h-.478c-1.654 0-3 1.346-3 3s1.346 3 3 3h.479c-1.253 3.538-4.637 6-8.479 6s-7.225-2.462-8.479-6h.479c1.654 0 3-1.346 3-3s-1.346-3-3-3h-.478c1.253-3.538 4.637-6 8.478-6s7.225 2.462 8.478 6zm3.522-17c-.551 0-1-.449-1-1s.449-1 1-1 1 .449 1 1-.449 1-1 1zm7-5h10v8h-10z" fill="url(#SVGID_1_)"/></svg>