<svg height="512pt" viewBox="0 -64 512 512" width="512pt" xmlns="http://www.w3.org/2000/svg"><path d="m512 32v256c0 17.679688-14.320312 32-32 32h-384c-17.679688 0-32-14.320312-32-32v-256c0-17.679688 14.320312-32 32-32h384c17.679688 0 32 14.320312 32 32zm0 0" fill="#2668ed"/><path d="m480 64v256h-416v-288h384c17.679688 0 32 14.320312 32 32zm0 0" fill="#1458e0"/><path d="m416 384h-384c-17.679688 0-32-14.320312-32-32v-256c0-17.679688 14.320312-32 32-32h384c17.679688 0 32 14.320312 32 32v256c0 17.679688-14.320312 32-32 32zm0 0" fill="#40a2e7"/><path d="m0 144h448v64h-448zm0 0" fill="#57565c"/><g fill="#fff"><path d="m64 288h48v32h-48zm0 0"/><path d="m144 288h64v32h-64zm0 0"/><path d="m240 288h64v32h-64zm0 0"/><path d="m336 288h48v32h-48zm0 0"/></g></svg>