<svg id="Layer_5" enable-background="new 0 0 64 64" height="512" viewBox="0 0 64 64" width="512" xmlns="http://www.w3.org/2000/svg" xmlns:xlink="http://www.w3.org/1999/xlink"><linearGradient id="SVGID_1_" gradientUnits="userSpaceOnUse" x1="32" x2="32" y1="63" y2="1"><stop offset="0" stop-color="#9f2fff"/><stop offset="1" stop-color="#0bb1d3"/></linearGradient><path d="m11 27c0 1.563.754 3.04 2 3.979v6.021h6v-6.021c1.246-.939 2-2.416 2-3.979 0-2.757-2.243-5-5-5s-5 2.243-5 5zm8 0c0 1.068-.562 2.033-1.503 2.581l-.497.289v5.13h-2v-5.13l-.497-.289c-.941-.548-1.503-1.513-1.503-2.581 0-1.654 1.346-3 3-3s3 1.346 3 3zm39.293 4.293 1.414 1.414-4.707 4.707-2.707-2.707 1.414-1.414 1.293 1.293zm-22 22 1.414 1.414-4.707 4.707-2.707-2.707 1.414-1.414 1.293 1.293zm0-44 1.414 1.414-4.707 4.707-2.707-2.707 1.414-1.414 1.293 1.293zm20.673 17.782c-2.312-7.675-8.366-13.729-16.041-16.041-.473-3.403-3.394-6.034-6.925-6.034-3.519 0-6.432 2.614-6.92 6h-2.08v-1c0-4.963-4.037-9-9-9s-9 4.037-9 9v6.968c-.219.011-.436.032-.657.032h-1.064l-.228.684c-.165.496-4.051 12.212-4.051 17.316 0 4.53 7.925 7.962 12.649 9.604.755.263 1.546.396 2.351.396s1.596-.133 2.351-.396c1.651-.574 3.691-1.371 5.649-2.352 2.461 2.978 6.126 4.748 10 4.748 7.168 0 13-5.832 13-13s-5.832-13-13-13c-1.947 0-3.865.45-5.62 1.297-.741-2.533-1.367-4.421-1.432-4.614l-.227-.683h-1.063c-.221 0-.438-.021-.657-.032v-3.968h2.08c.488 3.386 3.401 6 6.92 6 3.478 0 6.365-2.554 6.902-5.883 6.591 2.178 11.803 7.39 13.981 13.981-3.33.537-5.884 3.424-5.884 6.902s2.554 6.365 5.883 6.902c-2.178 6.591-7.39 11.803-13.981 13.981-.537-3.329-3.424-5.883-6.902-5.883-3.519 0-6.432 2.614-6.92 6h-11.08v2h11.08c.488 3.386 3.401 6 6.92 6 3.531 0 6.452-2.631 6.925-6.034 7.675-2.312 13.729-8.366 16.041-16.041 3.403-.473 6.034-3.394 6.034-6.925s-2.631-6.452-6.034-6.925zm-31.181 14.208c.158-.093.316-.187.471-.283h2.647c.37 1.311.84 2.431 1.383 3.34-1.718-.622-3.269-1.669-4.501-3.057zm8.215-18.283c1.075 0 2.22 1.527 3.009 4h-6.02c.874-2.752 2.095-4 3.011-4zm3.519 6c.244 1.209.408 2.553.46 4h-7.124c-.15-1.211-.408-2.583-.723-4zm7.43 4h-4.971c-.046-1.419-.184-2.763-.409-4h4.216c.627 1.221 1.035 2.57 1.164 4zm0 2c-.13 1.43-.537 2.779-1.164 4h-4.216c.225-1.237.363-2.581.409-4zm-13.949 0h6.979c-.052 1.447-.217 2.791-.46 4h-8.608c1.266-1.205 2.089-2.545 2.089-4zm3 10c-.915 0-2.136-1.249-3.009-4h6.019c-.79 2.473-1.935 4-3.01 4zm3.714-.659c.553-.919 1.023-2.046 1.391-3.341h3.373c-1.246 1.507-2.89 2.665-4.764 3.341zm4.765-17.341h-3.373c-.368-1.295-.837-2.422-1.391-3.341 1.873.676 3.517 1.834 4.764 3.341zm-12.209-3.313c-.347.585-.664 1.258-.943 2.012-.127-.483-.256-.959-.385-1.426.432-.225.874-.421 1.328-.586zm-1.27 11.313c0 2.794-6.091 5.902-11.306 7.716-1.088.377-2.301.377-3.389 0-5.214-1.814-11.305-4.922-11.305-7.716 0-4.114 2.896-13.416 3.728-16.005 3.448-.088 6.695-1.361 9.272-3.625 2.577 2.264 5.824 3.537 9.272 3.625.832 2.589 3.728 11.891 3.728 16.005zm-10-19.902c-.82-.51-1.593-1.105-2.293-1.805l-.707-.707-.707.707c-.7.7-1.473 1.295-2.293 1.805v-5.098c0-1.654 1.346-3 3-3s3 1.346 3 3zm2 1.013v-6.111c0-2.757-2.243-5-5-5s-5 2.243-5 5v6.111c-.647.256-1.315.459-2 .604v-6.715c0-3.859 3.141-7 7-7s7 3.141 7 7v6.715c-.685-.146-1.353-.349-2-.604zm13 .889c-2.757 0-5-2.243-5-5s2.243-5 5-5 5 2.243 5 5-2.243 5-5 5zm0 44c-2.757 0-5-2.243-5-5s2.243-5 5-5 5 2.243 5 5-2.243 5-5 5zm22-22c-2.757 0-5-2.243-5-5s2.243-5 5-5 5 2.243 5 5-2.243 5-5 5zm-46 18h-2v-2h2zm4 0h-2v-2h2zm9.512-29.816c-.166-.639-.342-1.279-.52-1.913l1.926-.541c.182.646.359 1.3.529 1.95zm1.283 5.763 1.975-.316c.134.835.21 1.547.228 2.116l-2 .061c-.016-.485-.083-1.111-.203-1.861zm-.796-3.841 1.943-.471c.165.682.316 1.347.449 1.98l-1.957.41c-.128-.613-.276-1.258-.435-1.919z" fill="url(#SVGID_1_)"/></svg>