<?xml version="1.0" encoding="iso-8859-1"?>
<!-- Generator: Adobe Illustrator 19.0.0, SVG Export Plug-In . SVG Version: 6.00 Build 0)  -->
<svg version="1.1" id="Capa_1" xmlns="http://www.w3.org/2000/svg" xmlns:xlink="http://www.w3.org/1999/xlink" x="0px" y="0px"
	 viewBox="0 0 46.792 46.792" style="enable-background:new 0 0 46.792 46.792;" xml:space="preserve">
<g>
	<g>
		<path d="M20.617,5.538c-0.063-0.104-0.136-0.202-0.207-0.297c-0.237-0.311-0.519-0.569-0.836-0.778
			c-0.537-0.352-1.183-0.557-1.838-0.557c-0.543,0-0.822,0.066-1.212,0.224c-0.4,0.159-0.827,0.378-1.212,0.785
			c-0.382,0.402-0.61,0.814-0.77,1.241c-0.322,0.86-0.284,1.989,0.279,2.893c1.176,1.9,1.871,4.054,2.126,6.272
			c0.069,0.591,0.112,1.185,0.112,1.785c0,2.855-0.779,5.647-2.251,8.072c-0.052,0.086-0.098,0.172-0.141,0.26
			c-0.287,0.578-0.391,1.203-0.333,1.812c0.098,1.031,0.659,2.006,1.61,2.584c0.246,0.146,0.505,0.258,0.775,0.342
			c0.319,0.098,0.648,0.15,0.982,0.15c1.194,0,2.28-0.609,2.9-1.629c1.864-3.072,2.954-6.549,3.187-10.134
			c0.032-0.484,0.047-0.97,0.047-1.458C23.835,13.019,22.723,9.019,20.617,5.538z"/>
	</g>
</g>
<g>
	<g>
		<path d="M10.178,39.999c-1.333,0-2.27,0.982-2.27,2.131c0,0.981,0.744,2.065,2.137,2.065c1.429,0,2.226-1.092,2.226-2.129
			C12.271,41.006,11.464,39.999,10.178,39.999z M11.142,43.489c-0.203,0.279-0.553,0.447-0.894,0.447
			c-1.061,0-1.491-1.43-1.491-2.295c0-0.377,0.062-0.764,0.404-1.072c0.211-0.184,0.5-0.297,0.789-0.297
			c1.085,0,1.455,1.473,1.455,2.244C11.405,42.857,11.351,43.207,11.142,43.489z"/>
	</g>
</g>
<g>
	<g>
		<path d="M16.467,15.159c-1.939-2.675-4.642-5.018-7.7-6.656c-0.467-0.249-0.99-0.38-1.516-0.38c-1.193,0-2.28,0.65-2.842,1.699
			c-0.839,1.568-0.247,3.52,1.318,4.359c4.719,2.524,7.763,7.34,8.124,12.905v-0.004c-0.054-0.621,0.047-1.229,0.333-1.805
			c0.039-0.082,0.086-0.168,0.141-0.26c1.474-2.425,2.251-5.217,2.251-8.074C16.576,16.344,16.534,15.75,16.467,15.159z"/>
	</g>
</g>
<g>
	<g>
		<path d="M5.913,42.156l-0.658,0.356l1.241-0.066v1.322c-0.244,0.099-0.516,0.205-1.042,0.205c-1.791,0-2.907-1.455-2.907-2.998
			c0-1.438,0.977-2.424,2.273-2.424c0.97,0,1.481,0.5,1.76,0.773L6.374,39.65l0.287-0.064l0.683-0.648
			c-0.181-0.125-0.47-0.338-1.085-0.51c-0.387-0.107-0.814-0.172-1.257-0.172c-2.096,0-3.32,1.479-3.32,3.072
			c0,1.305,0.864,2.973,3.13,2.973c0.452,0,0.878-0.064,1.355-0.141l1.176-0.27v-1.004c0-0.082,0.007-0.32,0.014-0.394
			c0.018-0.065,0.026-0.082,0.083-0.132l0.213-0.204H5.913z"/>
	</g>
</g>
<g>
	<g>
		<path d="M20.314,43.908l-0.315-0.244c-0.097-0.078-0.229-0.185-0.229-0.375c0-0.195,0.133-0.318,0.246-0.431
			c0.367-0.289,0.735-0.596,0.735-1.244c0-0.668-0.42-1.018-0.62-1.186h0.542l0.56-0.31h-1.805c-0.474,0-1.068,0.068-1.568,0.48
			c-0.378,0.323-0.562,0.774-0.562,1.176c0,0.684,0.527,1.375,1.456,1.375c0.087,0,0.183-0.01,0.28-0.019
			c-0.043,0.107-0.088,0.193-0.088,0.343c0,0.272,0.141,0.438,0.263,0.596c-0.394,0.025-1.129,0.07-1.673,0.402
			c-0.517,0.306-0.674,0.754-0.674,1.067c0,0.65,0.613,1.254,1.884,1.254c1.507,0,2.303-0.832,2.303-1.655
			C21.049,44.533,20.699,44.233,20.314,43.908z M19.166,42.903c-0.753,0-1.096-0.973-1.096-1.561c0-0.225,0.046-0.463,0.193-0.65
			c0.139-0.174,0.385-0.289,0.613-0.289c0.729,0,1.105,0.982,1.105,1.613c0,0.156-0.017,0.438-0.217,0.642
			C19.623,42.797,19.385,42.903,19.166,42.903z M19.175,46.419c-0.937,0-1.542-0.445-1.542-1.066c0-0.623,0.561-0.832,0.755-0.903
			c0.367-0.121,0.839-0.14,0.919-0.14c0.087,0,0.131,0,0.2,0.008c0.666,0.475,0.957,0.711,0.957,1.156
			C20.464,46.017,20.016,46.419,19.175,46.419z"/>
	</g>
</g>
<g>
	<g>
		<path d="M14.838,39.999c-1.331,0-2.269,0.982-2.269,2.131c0,0.981,0.744,2.065,2.138,2.065c1.428,0,2.227-1.092,2.227-2.129
			C16.934,41.006,16.126,39.999,14.838,39.999z M15.802,43.489c-0.202,0.279-0.551,0.447-0.892,0.447
			c-1.061,0-1.492-1.43-1.492-2.295c0-0.377,0.063-0.764,0.404-1.072c0.211-0.184,0.498-0.297,0.788-0.297
			c1.087,0,1.455,1.473,1.455,2.244C16.065,42.857,16.013,43.207,15.802,43.489z"/>
	</g>
</g>
<g>
	<g>
		<rect x="37.536" y="38.428" width="0.449" height="5.655"/>
	</g>
</g>
<g>
	<g>
		<path d="M36.831,9.261C36.263,6.77,35.418,4.338,34.32,2.03C33.731,0.797,32.47,0,31.103,0c-0.526,0-1.044,0.116-1.524,0.345
			c-1.771,0.843-2.525,2.976-1.686,4.742c1.809,3.811,2.699,7.837,2.699,12.019c0,4.181-0.896,8.203-2.67,11.951
			c-0.026,0.057-0.336,0.721-0.336,1.486c-0.002,0.215,0.021,0.537,0.09,0.824c0.23,1.008,0.889,1.922,1.941,2.426
			c0.483,0.229,0.991,0.342,1.521,0.342c1.298,0,2.5-0.717,3.12-1.846c0.709-1.332,1.427-3.082,2.051-5.334
			c0.197-0.68,0.363-1.316,0.52-2.006c0.58-2.543,0.883-5.166,0.883-7.845C37.709,14.458,37.409,11.799,36.831,9.261z"/>
	</g>
</g>
<g>
	<g>
		<path d="M43.018,42.032c0-1.155-0.409-2.009-1.436-2.009c-0.974,0-1.451,0.772-1.451,2.043c0,1.417,0.56,2.105,1.5,2.105
			c0.723,0,1.274-0.438,1.387-1.395l-0.458-0.064c-0.093,0.744-0.445,1.031-0.929,1.031c-0.623,0-1.031-0.474-1.031-1.564h2.418
			V42.032z M42.539,41.77h-1.937c0.034-0.809,0.37-1.328,0.985-1.328c0.631,0,0.926,0.576,0.952,1.312V41.77z"/>
	</g>
</g>
<g>
	<g>
		<rect x="38.943" y="38.428" width="0.451" height="5.655"/>
	</g>
</g>
<g>
	<g>
		<path d="M44.708,43.697c-0.318,0-0.393-0.106-0.393-0.483v-2.688h0.794v-0.409h-0.793v-1.463l-0.46,0.181v1.281h-0.518v0.409
			h0.518v2.746c0,0.564,0.188,0.859,0.777,0.859c0.197,0,0.375-0.031,0.477-0.072v-0.451C45.005,43.665,44.864,43.697,44.708,43.697
			z"/>
	</g>
</g>
<g>
	<g>
		<path d="M36.629,43.303l-0.001-2.026c0-0.879-0.491-1.256-1.367-1.256c-0.745,0-1.256,0.438-1.346,1.084l0.442,0.063
			c0.076-0.459,0.378-0.737,0.888-0.737c0.654,0,0.941,0.249,0.941,0.895v0.426c-0.212-0.098-0.541-0.17-0.941-0.17
			c-0.83,0-1.412,0.45-1.412,1.262c0,0.887,0.577,1.328,1.307,1.328c0.416,0,0.86-0.233,1.048-0.508
			c0,0.113,0.017,0.311,0.058,0.418h0.457C36.654,43.885,36.629,43.649,36.629,43.303z M36.188,43.074
			c-0.165,0.352-0.575,0.68-1.023,0.68c-0.51,0-0.877-0.295-0.877-0.908c0-0.582,0.391-0.861,0.949-0.861
			c0.418,0,0.728,0.091,0.951,0.195V43.074z"/>
	</g>
</g>
<g>
	<g>
		<path d="M22.88,43.846c-0.289-0.026-0.35-0.078-0.35-0.422v-2.021c0-1.245,0.009-2.315,0.081-2.989
			c0.034-0.308,0.122-0.363,0.393-0.519h-1.252l-0.657,0.316h0.681c-0.007,0.404-0.041,0.963-0.05,1.412
			c-0.027,0.908-0.037,1.881-0.037,2.566v1.43c0,0.174-0.035,0.199-0.235,0.463h1.55l0.324-0.191
			C23.18,43.873,23.028,43.867,22.88,43.846z"/>
	</g>
</g>
<g>
	<g>
		<path d="M25.807,43.758c-0.833,0-1.585-0.649-1.811-1.762l0.672-0.054l2.061-0.832c-0.058-0.202-0.173-0.579-0.611-0.868
			c-0.261-0.166-0.589-0.246-0.902-0.246c-0.901,0-2.005,0.666-2.005,2.024c0,0.659,0.269,1.413,0.894,1.851
			c0.445,0.321,0.883,0.34,1.164,0.34c0.264,0,0.561-0.034,0.85-0.166c0.096-0.043,0.196-0.104,0.291-0.155l0.465-0.439
			C26.578,43.602,26.252,43.758,25.807,43.758z M23.97,41.511c0-0.95,0.656-1.222,1.006-1.222c0.474,0,0.867,0.403,0.867,0.754
			c0,0.125-0.088,0.176-0.254,0.237l-1.594,0.693C23.984,41.814,23.967,41.657,23.97,41.511z"/>
	</g>
</g>
<g>
	<g>
		<path d="M29.872,13.957c-2.32-3.711-5.683-7.029-9.618-9.465c0.023,0.015,0.046,0.03,0.049,0.033
			c0.273,0.197,0.503,0.403,0.744,0.716c0.059,0.076,0.141,0.185,0.209,0.297c2.106,3.481,3.22,7.481,3.22,11.567
			c0,0.486-0.017,0.974-0.047,1.458c1.688,3.216,2.61,6.871,2.61,10.705c0,0.305,0.004,0.795-0.002,1.152
			c0.018-0.4,0.117-0.822,0.262-1.193c0.022-0.059,0.046-0.115,0.072-0.17c1.772-3.748,2.67-7.77,2.67-11.951
			C30.042,15.668,29.945,14.62,29.872,13.957z"/>
	</g>
</g>
<g>
	<g>
		<polygon points="32.812,40.115 32.081,43.672 31.296,40.113 30.663,40.113 29.884,43.672 29.138,40.115 28.647,40.115 
			29.556,44.082 30.181,44.082 30.984,40.541 31.77,44.082 32.394,44.082 33.296,40.115 		"/>
	</g>
</g>
<g>
</g>
<g>
</g>
<g>
</g>
<g>
</g>
<g>
</g>
<g>
</g>
<g>
</g>
<g>
</g>
<g>
</g>
<g>
</g>
<g>
</g>
<g>
</g>
<g>
</g>
<g>
</g>
<g>
</g>
</svg>
