<svg height="512pt" viewBox="0 -91 512 512" width="512pt" xmlns="http://www.w3.org/2000/svg"><path d="m164.660156 0c-90.792968 0-164.660156 73.859375-164.660156 164.644531 0 90.785157 73.867188 164.644531 164.660156 164.644531 90.792969 0 164.660156-73.859374 164.660156-164.644531 0-90.785156-73.867187-164.644531-164.660156-164.644531zm0 0" fill="#ffbc4f"/><path d="m347.339844 0c-90.792969 0-164.660156 73.859375-164.660156 164.644531 0 90.785157 73.867187 164.644531 164.660156 164.644531 90.792968 0 164.660156-73.859374 164.660156-164.644531 0-90.785156-73.867188-164.644531-164.660156-164.644531zm0 0" fill="#ff7d4f"/><g fill="#ffbc4f"><path d="m246.8125 218.675781c0-8.285156-6.714844-15-15-15h-44.445312c2.542968 10.421875 6.078124 20.457031 10.503906 30h33.941406c8.285156 0 15-6.714843 15-15zm0 0"/><path d="m246.8125 121.050781c0-8.28125-6.714844-15-15-15h-38.347656c-3.671875 9.605469-6.472656 19.636719-8.296875 30h46.644531c8.285156 0 15-6.714843 15-15zm0 0"/><path d="m288.078125 169.863281c0-8.285156-6.71875-15-15-15h-90.101563c-.191406 3.238281-.296874 6.496094-.296874 9.78125 0 6.84375.425781 13.589844 1.242187 20.21875h89.15625c8.28125 0 15-6.714843 15-15zm0 0"/></g></svg>