<svg id="Capa_1" enable-background="new 0 0 512 512" height="512" viewBox="0 0 512 512" width="512" xmlns="http://www.w3.org/2000/svg"><g><path d="m292.62 60.73v370.62c0 30.75-24.93 55.67-55.67 55.67h-165.01c-30.75 0-55.67-24.92-55.67-55.67v-370.62c0-13.16 10.66-23.83 23.83-23.83h228.69c13.16 0 23.83 10.67 23.83 23.83z" fill="#f0f7ff"/><path d="m291.88 62.27v370.62c0 30.75-24.93 55.67-55.67 55.67h-81.95v-450.12h113.79c13.16 0 23.83 10.67 23.83 23.83z" fill="#dfe7f4"/><path d="m261.21 0h-212.42c-26.82 0-48.79 21.69-48.79 48.79v391.47c0 39.56 32.18 71.74 71.74 71.74h166.52c39.56 0 71.74-32.18 71.74-71.74v-391.47c0-27.01-21.87-48.79-48.79-48.79zm18.79 440.26c0 23.02-18.72 41.74-41.74 41.74h-166.52c-23.02 0-41.74-18.72-41.74-41.74v-388.37l21.91 22.11c9.99 10.17 23.89 16 38.14 16h129.9c14.25 0 28.15-5.83 38.09-15.95l21.96-22.15z" fill="#0d527c"/><g><g><g><path d="m358.47 315.73c-3.839 0-7.677-1.464-10.606-4.393-5.858-5.858-5.858-15.355 0-21.213 9.115-9.117 14.136-21.236 14.136-34.124s-5.021-25.007-14.137-34.124c-5.857-5.858-5.857-15.355 0-21.213 5.858-5.857 15.356-5.857 21.213 0 14.783 14.783 22.924 34.436 22.924 55.337s-8.141 40.554-22.923 55.336c-2.929 2.929-6.768 4.394-10.607 4.394z" fill="#525cdd"/></g><g><path d="m400.9 358.16c-3.838 0-7.675-1.463-10.604-4.391-5.859-5.856-5.861-15.354-.004-21.213 20.447-20.457 31.708-47.645 31.708-76.556s-11.261-56.099-31.709-76.556c-5.856-5.859-5.854-15.357.004-21.213 5.86-5.857 15.357-5.854 21.213.004 26.112 26.123 40.492 60.843 40.492 97.765s-14.38 71.642-40.491 97.765c-2.929 2.93-6.769 4.395-10.609 4.395z" fill="#525cdd"/></g><g><path d="m443.32 400.58c-3.84 0-7.679-1.465-10.608-4.395-5.857-5.859-5.855-15.356.003-21.213 31.782-31.772 49.285-74.024 49.285-118.972s-17.503-87.2-49.285-118.972c-5.859-5.857-5.86-15.354-.003-21.213s15.354-5.859 21.213-.003c37.45 37.438 58.075 87.225 58.075 140.188s-20.625 102.75-58.075 140.188c-2.929 2.928-6.767 4.392-10.605 4.392z" fill="#525cdd"/></g></g></g><path d="m215.61 337.27v.2c.09 13.57-5.11 26.36-14.64 36.02-8.39 8.49-19.24 13.66-30.97 14.84v23.1c0 8.29-6.72 15-15 15s-15-6.71-15-15v-23c-25.37-2.65-45.29-24.08-45.45-50.18-.06-8.28 6.62-15.04 14.9-15.09h.1c8.24 0 14.94 6.66 14.99 14.91.08 11.41 9.38 20.64 20.77 20.64h.13l9.56-.06 9.97-.06c5.55-.03 10.75-2.23 14.65-6.18s6.03-9.18 5.99-14.73v-.2c-.05-6.51-3.19-12.69-8.42-16.56l-22.19-16.42-40.04-29.63c-12.88-9.54-20.57-24.79-20.57-40.81 0-26.25 20.03-47.92 45.61-50.51v-22.98c0-8.29 6.72-15 15-15s15 6.71 15 15v23c25.52 2.65 45.49 24.28 45.49 50.49 0 8.28-6.72 15-15 15-8.29 0-15-6.72-15-15 0-11.45-9.32-20.77-20.77-20.77h-19.56c-11.45 0-20.77 9.32-20.77 20.77 0 6.55 3.15 12.79 8.42 16.69l22.19 16.42 40.04 29.64c12.77 9.45 20.46 24.57 20.57 40.46z" fill="#fabe2c"/><path d="m310 48.79v391.47c0 39.56-32.18 71.74-71.74 71.74h-83.26v-30h83.26c23.02 0 41.74-18.72 41.74-41.74v-388.36l-21.96 22.15c-9.94 10.12-23.84 15.95-38.09 15.95h-64.95v-90h106.21c26.92 0 48.79 21.78 48.79 48.79z" fill="#003b60"/><g fill="#ff9100"><path d="m164.72 213.29h-9.72v-67.72c8.28 0 15 6.71 15 15v23c25.52 2.65 45.49 24.28 45.49 50.49 0 8.28-6.72 15-15 15-8.29 0-15-6.72-15-15 0-11.45-9.32-20.77-20.77-20.77z"/><path d="m215.61 337.27v.2c.09 13.57-5.11 26.36-14.64 36.02-8.39 8.49-19.24 13.66-30.97 14.84v23.1c0 8.29-6.72 15-15 15v-67.78l9.97-.06c5.55-.03 10.75-2.23 14.65-6.18s6.03-9.18 5.99-14.73v-.2c-.05-6.51-3.19-12.69-8.42-16.56l-22.19-16.42v-37.33l40.04 29.64c12.77 9.45 20.46 24.57 20.57 40.46z"/></g></g></svg>